<svg id="Livello_1" data-name="Livello 1" xmlns="http://www.w3.org/2000/svg" viewBox="0 0 1000 1000"><defs><style>.cls-1{fill:#c12967;}.cls-2{fill:#2e4438;opacity:0.42;}.cls-3{fill:#ffa599;}.cls-4{fill:#fdd6bd;}.cls-5{fill:#e1af93;}.cls-6{fill:#bc6c6c;}</style></defs><rect class="cls-1" x="48.09" y="104.03" width="903.66" height="798.97" rx="24.53"/><path class="cls-2" d="M213.31,274.23H786.53a44,44,0,0,1,44,44V742.65a6.07,6.07,0,0,1-6.07,6.07H175.39a6.07,6.07,0,0,1-6.07-6.07V318.23A44,44,0,0,1,213.31,274.23Z"/><path class="cls-3" d="M230.65,464c-29.06-9.84-51.45-28.51-67.49-54.08A224.21,224.21,0,0,1,128.34,287.7c0-10.35,2.17-16.58,14.31-15.19,28.89,3.3,55.81-4.57,82.54-14.45a221.2,221.2,0,0,1,39.09-10.28c21.1-3.61,40.12.84,54.88,18,9.2,10.68,18.5,14.63,33.46,7,96.74-49.44,194.46-47.79,292-2,11.69,5.49,20.72,8.63,30.64-2.34,20.45-22.61,46.46-22.2,73.14-15.62,25.54,6.3,49.8,17.39,76.3,20.31,10.39,1.14,20.62,2.66,31.05.1,10.75-2.64,16.27,1.17,15.76,13-3,70.83-23,133.17-88.12,171.74-13,7.66-13.59,14.28-8.69,27.62,18.74,51,24.7,103.42.82,154C709.2,780,534.72,827.66,394,782.15,345.88,766.57,301,740.4,267.19,702.31c-57-64.25-66.36-136.73-37.69-215.92,2.27-6.28,3.65-12.87,5.46-19.38,6.89,2.52,14.24,4.22,20.58,7.74,12.91,7.17,18.55,1.87,22.47-10.44,9.33-29.36,23.78-56.47,38.5-83.34,14.87-27.13,3.64-50.29-10.85-72-14.32-21.48-36-30.77-62-28.14-32.1,3.25-62.73,15.91-98.13,13.23,19.25,24.75,42.42,36.58,69.51,42.35,7,1.49,17.44.83,14.07,13.86-9.77,37.82-5.63,75.35,2.78,112.74ZM845.17,296.85A144.62,144.62,0,0,1,815.89,295c-26-4.07-51.57-10.22-78.33-9.05-46.93,2.05-70.49,40-49.9,81.91,14.87,30.27,29.78,60.57,39.92,92.83,6.91,22,8.88,22.89,27.72,10.14,5-3.34,7.38-7.69,9.35-13,12-32.44,15.79-65.6,6.39-99.13-4.36-15.54,1.39-21,15.5-23.92,24.15-5,44.4-17.17,60.37-36.16C848,296.34,847.3,295.87,845.17,296.85ZM503.34,540.66c-28.11.09-54.11,9.22-73,24.51-33.71,27.26-35.72,73.22-4.49,102.84,39.06,37,113.19,36.06,151.42-2,26.83-26.72,29.82-64.21,5.86-89C560.63,553.82,533.72,539.2,503.34,540.66ZM382.05,584.58c.25-6.66-2.76-11.6-7.83-15.71-17.9-14.55-52.56-9.78-65.62,9.38-6.09,9-9.69,18.52-3.35,29s15.91,15.35,27.78,13.84c15.43-2,29.41-7.83,40.8-18.92C378.82,597.36,382.41,591.9,382.05,584.58Zm293.06,37.27c13.66,1.83,25.43-5.07,29.07-21,3.93-17.21-8.13-25.7-22-31.2-14.1-5.58-29.13-4.44-43.5-2.13-16,2.57-21.67,17.67-11.68,30.59C638.2,612.61,652.82,622.29,675.11,621.85ZM362.37,548.13c20.16-.52,35.48-15.7,35.09-34.77-.4-19.57-15.69-34.37-35.52-34.39-18.54,0-36.13,17.79-34.89,35.32C328.23,531,346.51,548.54,362.37,548.13Zm307.3-33.81c0-18.14-14.95-34.75-30.93-34.28-21,.61-35.9,14.95-35.61,34.27.28,18.75,15.31,34,33.54,34C655.14,548.35,669.63,533.41,669.67,514.32Z"/><path class="cls-4" d="M234.94,467.08,230.66,464l1.21-.95,3.09,4Z"/><path class="cls-5" d="M342,761.36l3.44,3.85Z"/><path class="cls-6" d="M503.34,540.66c30.38-1.46,57.29,13.16,79.77,36.38,24,24.76,21,62.25-5.86,89-38.23,38.06-112.36,39-151.42,2-31.23-29.62-29.22-75.58,4.49-102.84C449.23,549.88,475.23,540.75,503.34,540.66Zm21.23,76.9c.72,12.94,6,26.29,18.07,25.69,11.46-.57,18-13.45,17-26.6-.84-11.36-3-23.87-17.11-23.74C527.61,593.05,525.45,605.86,524.57,617.56Zm-83.3-.12c1.82,11.11,3.46,24.13,17.82,23.3,13.07-.76,17.28-12.91,17.26-24.46s-4.17-23.38-18.07-23.13C443.79,593.42,443.05,606.42,441.27,617.44Z"/><path class="cls-6" d="M235,467l-3.09-4c-8.4-37.4-12.54-74.93-2.77-112.75,3.37-13-7.1-12.37-14.07-13.86-27.09-5.77-50.26-17.6-69.51-42.35,35.4,2.68,66-10,98.13-13.23,26-2.63,47.69,6.66,62,28.14,14.49,21.73,25.72,44.89,10.85,72-14.72,26.87-29.17,54-38.5,83.34-3.92,12.31-9.56,17.61-22.47,10.44C249.2,471.23,241.85,469.53,235,467Z"/><path class="cls-6" d="M846.92,298.59c-16,19-36.23,31.16-60.38,36.15-14.11,2.91-19.86,8.38-15.5,23.92,9.4,33.53,5.61,66.69-6.39,99.13-2,5.34-4.4,9.69-9.35,13-18.84,12.75-20.81,11.85-27.72-10.14-10.14-32.26-25.05-62.56-39.92-92.83-20.59-41.89,3-79.86,49.9-81.91,26.76-1.17,52.37,5,78.33,9.05a144.62,144.62,0,0,0,29.28,1.86C845.75,297.44,846.33,298,846.92,298.59Z"/><path class="cls-6" d="M382,584.57c.37,7.33-3.22,12.79-8.21,17.65-11.39,11.09-25.37,17-40.8,18.92-11.87,1.51-21.46-3.33-27.78-13.84s-2.74-20.1,3.35-29c13.06-19.16,47.72-23.93,65.62-9.38C379.29,573,382.3,577.92,382,584.57Z"/><path class="cls-6" d="M675.11,621.85c-22.29.44-36.91-9.24-48.12-23.75-10-12.92-4.3-28,11.68-30.59,14.37-2.31,29.4-3.45,43.5,2.13,13.88,5.5,25.94,14,22,31.2C700.54,616.78,688.77,623.68,675.11,621.85Z"/><path d="M362.37,548.13c-15.86.41-34.14-17.1-35.32-33.84C325.81,496.76,343.4,479,361.94,479c19.83,0,35.12,14.82,35.52,34.39C397.85,532.43,382.53,547.61,362.37,548.13Zm10-51.63c-4.71.43-8.08,2.94-8.3,7.64-.28,6.13,4.31,8,9.45,8,4.58,0,8.3-2.23,8.25-7.32C381.68,499,377.84,496.64,372.33,496.5Z"/><path d="M669.67,514.32c0,19.09-14.53,34-33,34-18.23,0-33.26-15.26-33.54-34-.29-19.32,14.61-33.66,35.61-34.27C654.72,479.57,669.7,496.18,669.67,514.32ZM636.3,495.38c-3.62,1-7.83,2.52-7.54,7.79.31,5.69,4.19,8.5,9.72,8.38,4.7-.11,8.34-2.38,8.19-7.57C646.49,498.09,642.35,495.91,636.3,495.38Z"/><path class="cls-5" d="M845.17,296.85c2.13-1,2.81-.51,1.75,1.73C846.33,298,845.75,297.44,845.17,296.85Z"/><path d="M524.57,617.56c.88-11.7,3-24.51,18-24.65,14.11-.13,16.27,12.38,17.11,23.74,1,13.15-5.56,26-17,26.6C530.58,643.85,525.29,630.5,524.57,617.56Z"/><path d="M441.27,617.44c1.78-11,2.52-24,17-24.29,13.9-.25,18,11.51,18.07,23.13s-4.19,23.7-17.26,24.46C444.73,641.57,443.09,628.55,441.27,617.44Z"/><path class="cls-4" d="M372.36,496.49c5.48.15,9.32,2.53,9.37,8.34,0,5.09-3.67,7.32-8.25,7.32-5.14,0-9.73-1.88-9.45-8C364.25,499.44,367.62,496.93,372.36,496.49Z"/><path class="cls-4" d="M636.3,495.38c6.05.53,10.19,2.71,10.37,8.6.15,5.19-3.49,7.46-8.19,7.57-5.53.12-9.41-2.69-9.72-8.38C628.47,497.9,632.68,496.37,636.3,495.38Z"/><rect class="cls-1" x="94.93" y="737.7" width="809.99" height="110.2"/><path class="cls-6" d="M372.6,764.68c0,43.37-35.16,39.27-78.53,39.27s-78.54,4.1-78.54-39.27a78.54,78.54,0,1,1,157.07,0Z"/><path class="cls-6" d="M784.31,764.68c0,43.37-35.16,39.27-78.53,39.27s-78.54,4.1-78.54-39.27a78.54,78.54,0,1,1,157.07,0Z"/></svg>