<svg id="Livello_1" data-name="Livello 1" xmlns="http://www.w3.org/2000/svg" viewBox="0 0 1000 1000"><defs><style>.cls-1{fill:#ffa599;}.cls-2{fill:#fdd6bd;}.cls-3{fill:#e1af93;}.cls-4{fill:#bc6c6c;}.cls-5{fill:#282828;}</style></defs><path class="cls-1" d="M144.23,429.36c-38.39-13-68-37.66-89.17-71.45-30.82-49.13-46.21-103.1-46-161.43,0-13.68,2.87-21.9,18.91-20.07,38.16,4.36,73.73-6,109-19.09a292.87,292.87,0,0,1,51.65-13.58c27.88-4.77,53,1.11,72.51,23.73,12.16,14.11,24.44,19.33,44.2,9.23,127.82-65.32,256.94-63.14,385.76-2.63,15.44,7.25,27.37,11.4,40.49-3.09,27-29.87,61.38-29.34,96.62-20.64,33.75,8.32,65.81,23,100.82,26.83,13.72,1.51,27.24,3.52,41,.14,14.19-3.49,21.49,1.55,20.82,17.22-4,93.57-30.34,176-116.44,226.9-17.1,10.12-18,18.87-11.47,36.5,24.76,67.36,32.63,136.64,1.08,203.49C776.5,846.92,546,909.9,360.11,849.77c-63.63-20.58-123-55.16-167.61-105.48-75.34-84.9-87.67-180.66-49.79-285.3,3-8.28,4.82-17,7.22-25.59,9.1,3.33,18.81,5.57,27.18,10.22,17.07,9.47,24.51,2.48,29.69-13.8,12.32-38.78,31.42-74.61,50.87-110.1,19.65-35.85,4.8-66.45-14.34-95.16-18.92-28.38-47.57-40.65-81.92-37.18-42.42,4.29-82.89,21-129.66,17.48,25.43,32.69,56.05,48.33,91.84,56,9.21,2,23,1.09,18.59,18.31-12.91,50-7.43,99.54,3.67,149ZM956.16,208.57a191,191,0,0,1-38.68-2.46c-34.31-5.38-68.14-13.5-103.51-12C752,196.86,720.84,247,748,302.38c19.65,40,39.36,80,52.75,122.65,9.13,29.05,11.74,30.24,36.62,13.4,6.54-4.42,9.76-10.17,12.36-17.22,15.85-42.86,20.87-86.68,8.44-131-5.76-20.54,1.84-27.77,20.48-31.61C910.6,252,937.36,236,958.46,210.85,959.88,207.89,959,207.27,956.16,208.57ZM504.52,530.7c-37.14.12-71.49,12.18-96.48,32.39-44.54,36-47.19,96.74-5.93,135.87,51.6,48.94,149.55,47.65,200.06-2.64,35.45-35.3,39.4-84.83,7.74-117.55C580.21,548.09,544.65,528.78,504.52,530.7Zm-160.26,58c.33-8.8-3.64-15.32-10.34-20.76-23.65-19.22-69.44-12.91-86.7,12.4-8.05,11.82-12.8,24.46-4.43,38.38S263.82,639,279.5,637c20.38-2.59,38.85-10.35,53.9-25C340,605.62,344.74,598.4,344.26,588.73ZM731.46,638c18,2.41,33.61-6.71,38.41-27.77,5.19-22.73-10.73-34-29.08-41.22-18.63-7.37-38.49-5.86-57.48-2.81-21.1,3.4-28.62,23.35-15.43,40.41C682.7,625.76,702,638.55,731.46,638Zm-413.2-97.41c26.64-.68,46.88-20.74,46.36-45.94-.53-25.86-20.72-45.41-46.93-45.44-24.49,0-47.73,23.5-46.1,46.67C273.16,518,297.3,541.11,318.26,540.57Zm406-44.67c0-24-19.75-45.91-40.87-45.29-27.74.8-47.43,19.74-47,45.28.37,24.77,20.23,44.9,44.32,44.93C705.08,540.86,724.23,521.12,724.28,495.9Z"/><path class="cls-2" d="M149.9,433.48l-5.66-4.13,1.6-1.26c1.35,1.77,2.72,3.54,4.09,5.31Z"/><path class="cls-3" d="M291.33,822.29l4.55,5.1Z"/><path class="cls-4" d="M504.52,530.7c40.13-1.92,75.69,17.39,105.39,48.07,31.66,32.72,27.71,82.25-7.74,117.55C551.66,746.61,453.71,747.9,402.11,699c-41.26-39.13-38.61-99.85,5.93-135.87C433,542.88,467.38,530.82,504.52,530.7Zm28.05,101.61c.94,17.1,7.94,34.73,23.88,33.93,15.13-.75,23.76-17.77,22.48-35.14-1.11-15-4-31.53-22.61-31.36C536.58,599.92,533.73,616.84,532.57,632.31Zm-110.06-.16c2.41,14.68,4.57,31.88,23.54,30.78,17.27-1,22.83-17,22.8-32.31s-5.5-30.9-23.87-30.57C425.84,600.41,424.86,617.58,422.51,632.15Z"/><path class="cls-4" d="M149.93,433.4c-1.37-1.77-2.74-3.54-4.09-5.31-11.09-49.42-16.57-99-3.66-149,4.45-17.22-9.38-16.35-18.59-18.31-35.79-7.63-66.41-23.27-91.84-56,46.77,3.54,87.24-13.19,129.66-17.48,34.35-3.47,63,8.8,81.92,37.18,19.14,28.71,34,59.31,14.34,95.16-19.45,35.49-38.55,71.32-50.87,110.1-5.18,16.28-12.62,23.27-29.69,13.8C168.74,439,159,436.73,149.93,433.4Z"/><path class="cls-4" d="M958.47,210.87C937.36,236,910.6,252,878.69,258.63c-18.64,3.84-26.24,11.07-20.48,31.61,12.43,44.29,7.41,88.11-8.44,131-2.6,7.05-5.82,12.8-12.36,17.22-24.88,16.84-27.49,15.65-36.62-13.4C787.4,382.4,767.69,342.37,748,302.38,720.84,247,752,196.86,814,194.16c35.37-1.55,69.2,6.57,103.51,12a191,191,0,0,0,38.68,2.46C956.92,209.35,957.69,210.11,958.47,210.87Z"/><path class="cls-4" d="M344.26,588.72c.48,9.68-4.26,16.9-10.86,23.32-15,14.64-33.52,22.4-53.9,25-15.68,2-28.36-4.39-36.71-18.28s-3.62-26.56,4.43-38.38c17.26-25.31,63-31.62,86.7-12.4C340.62,573.41,344.59,579.93,344.26,588.72Z"/><path class="cls-4" d="M731.46,638c-29.45.57-48.76-12.22-63.58-31.39-13.19-17.06-5.67-37,15.43-40.41,19-3,38.85-4.56,57.48,2.81,18.35,7.27,34.27,18.49,29.08,41.22C765.07,631.27,749.51,640.39,731.46,638Z"/><path class="cls-5" d="M318.26,540.57c-21,.54-45.1-22.6-46.67-44.71-1.63-23.17,21.61-46.69,46.1-46.67,26.21,0,46.4,19.58,46.93,45.44C365.14,519.83,344.9,539.89,318.26,540.57Zm13.17-68.22c-6.24.57-10.68,3.9-11,10.1-.38,8.11,5.69,10.59,12.48,10.59,6.05,0,11-3,10.91-9.68C343.78,475.69,338.7,472.54,331.43,472.35Z"/><path class="cls-5" d="M724.28,495.9c0,25.22-19.2,45-43.6,44.92-24.09,0-43.95-20.16-44.32-44.93-.38-25.54,19.31-44.48,47-45.28C704.53,450,724.32,471.93,724.28,495.9Zm-44.1-25c-4.78,1.32-10.33,3.34-9.95,10.3.41,7.52,5.53,11.23,12.83,11.07,6.21-.14,11-3.15,10.82-10C693.65,474.46,688.18,471.58,680.18,470.87Z"/><path class="cls-3" d="M956.16,208.57c2.81-1.3,3.72-.68,2.3,2.29C957.69,210.11,956.92,209.35,956.16,208.57Z"/><path class="cls-5" d="M532.57,632.31c1.16-15.47,4-32.39,23.75-32.57,18.65-.17,21.5,16.35,22.61,31.36,1.28,17.37-7.35,34.39-22.48,35.14C540.51,667,533.51,649.41,532.57,632.31Z"/><path class="cls-5" d="M422.51,632.15c2.35-14.57,3.33-31.74,22.47-32.1,18.37-.33,23.84,15.21,23.87,30.57s-5.53,31.31-22.8,32.31C427.08,664,424.92,646.83,422.51,632.15Z"/><path class="cls-2" d="M331.46,472.34c7.24.2,12.32,3.35,12.39,11,.06,6.73-4.86,9.68-10.91,9.68-6.79,0-12.86-2.48-12.48-10.59C320.75,476.25,325.19,472.92,331.46,472.34Z"/><path class="cls-2" d="M680.18,470.87c8,.71,13.47,3.59,13.7,11.37.21,6.85-4.61,9.86-10.82,10-7.3.16-12.42-3.55-12.83-11.07C669.85,474.21,675.4,472.19,680.18,470.87Z"/></svg>